<?xml version="1.0" encoding="utf-8"?>
<!-- Generator: Adobe Illustrator 14.0.0, SVG Export Plug-In . SVG Version: 6.00 Build 43363)  -->
<!DOCTYPE svg PUBLIC "-//W3C//DTD SVG 1.1//EN" "http://www.w3.org/Graphics/SVG/1.1/DTD/svg11.dtd">
<svg version="1.1" id="Layer_1" xmlns="http://www.w3.org/2000/svg" xmlns:xlink="http://www.w3.org/1999/xlink" x="0px" y="0px"
	 width="1000px" height="223.461px" viewBox="0 0 1000 223.461" enable-background="new 0 0 1000 223.461" xml:space="preserve">
<g>
	<path fill="#A9A305" d="M348.801,59.987c-0.006,3.571-0.008,7.537-0.008,7.537s0,6.625-0.705,12.793l0.351,0.08
		c0,0,7.73-18.562,26.776-23.904c0,0,20.058-5.988,34.311,4.725c0,0,7.008,5.225,8.662,14.259c0,0,0.614,2.965,0.614,9.415v69.293
		h16.485v2.627h-54.793v-2.627h16.491v-77.31c0-6.659-1.358-9.676-1.358-9.676c-2.009-5.752-8.351-7.678-8.351-7.678
		c-5.611-1.724-11.632,0.148-11.632,0.148c-17.919,4.987-26.874,25.195-26.874,25.195v69.311h16.527v2.637H313.15v-2.637
		l13.855,0.01L327,62.528h-16.496v-2.542L348.801,59.987L348.801,59.987z"/>
	<g>
		<path fill="#A9A305" d="M883.054,59.987c0.009,20.971,0.037,94.205,0.037,94.205h16.483v2.632h-38.336l0.018-94.276h-41.188
			l-3.994-2.552L883.054,59.987z"/>
		<path fill="#A9A305" d="M884.867,12.21c0,6.703-5.753,12.13-12.86,12.13c-7.102,0-12.854-5.427-12.854-12.13
			c0-6.694,5.752-12.112,12.854-12.112C879.114,0.098,884.867,5.516,884.867,12.21z"/>
	</g>
	<path fill="#A9A305" d="M605.599,154.189c0,0-0.029-125.97-0.042-154.183h-38.301V2.54h16.5l0.01,151.646h-35.942
		c0,0-0.011-125.289-0.011-154.187l-38.312,0.027v2.541h16.519l-0.115,64.667c0,0-0.197,6.167,0.902,11.162l-0.353,0.107
		c-4.863-13.59-16.271-19.222-16.271-19.222c-18.164-9.719-37.196-0.898-37.196-0.898c-25.893,11.473-28.793,38.972-29.098,46.528
		c0,0-0.044,0.979-0.044,2.024v0.211c0,1.055,0.044,2.041,0.044,2.041c0.305,7.549,3.205,35.056,29.098,46.526
		c0,0,19.033,8.809,37.196-0.914c0,0,11.518-5.674,16.343-19.408l0.375,0.098c-1.1,4.996-0.908,11.156-0.908,11.156v10.168
		l96.102,0.01v-2.633H605.599z M526.689,107.137c0,19.724-2.953,26.804-2.953,26.804c-3.82,11.666-13.337,17.234-13.337,17.234
		c-8.049,5.217-18.166,4.6-18.166,4.6c-10.312-0.369-16.07-7.334-16.07-7.334c-4.831-5.121-6.273-14.686-6.273-14.686
		c-1.698-10.018-1.521-26.609-1.521-26.609v-0.203c0,0-0.178-16.593,1.521-26.61c0,0,1.442-9.561,6.273-14.682
		c0,0,5.759-6.977,16.07-7.329c0,0,10.117-0.614,18.166,4.593c0,0,9.517,5.56,13.337,17.232c0,0,2.953,7.082,2.953,26.804V107.137z"
		/>
	<path fill="#A9A305" d="M38.708,0l0.07,67.235c0,0,0.185,6.167-0.913,11.162l0.352,0.107c4.863-13.59,16.281-19.222,16.281-19.222
		c18.155-9.719,37.184-0.898,37.184-0.898c25.898,11.473,28.799,38.972,29.103,46.528c0,0,0.042,0.979,0.042,2.024v0.211
		c0,1.055-0.042,2.041-0.042,2.041c-0.304,7.548-3.205,35.056-29.103,46.526c0,0-19.029,8.81-37.184-0.914
		c0,0-11.524-5.674-16.345-19.407l-0.379,0.097c1.103,4.997,0.909,11.157,0.909,11.157v10.166H0v-2.627h16.849L16.891,2.541H0.344
		V0.008L38.708,0z M37.978,107.137c0,19.724,2.954,26.804,2.954,26.804c3.826,11.666,13.345,17.234,13.345,17.234
		c8.048,5.217,18.157,4.6,18.157,4.6c10.318-0.369,16.071-7.334,16.071-7.334c4.828-5.121,6.273-14.686,6.273-14.686
		c1.705-10.018,1.514-26.609,1.514-26.609v-0.203c0,0,0.191-16.593-1.514-26.61c0,0-1.445-9.561-6.273-14.682
		c0,0-5.752-6.977-16.071-7.329c0,0-10.108-0.614-18.157,4.593c0,0-9.519,5.56-13.345,17.232c0,0-2.954,7.082-2.954,26.804V107.137z
		"/>
	<path fill="#A9A305" d="M682.721,159.33c-2.246,0-4.424-0.15-4.424-0.15c-10.372-0.623-18.571-4.39-18.571-4.39
		c-25.896-11.472-28.88-38.388-29.1-46.482c0,0-0.018-0.573-0.018-1.108v-0.281c0-0.536,0.018-1.107,0.018-1.107
		c0.22-8.085,3.202-35.013,29.1-46.493c0,0,8.199-3.756,18.571-4.379c0,0,2.178-0.151,4.424-0.151h0.268
		c2.238,0,4.415,0.151,4.415,0.151c10.363,0.624,18.57,4.379,18.57,4.379c25.896,11.48,28.883,38.407,29.106,46.493
		c0,0,0.015,0.571,0.015,1.107v0.281c0,0.536-0.015,1.108-0.015,1.108c-0.225,8.096-3.212,35.012-29.106,46.482
		c0,0-8.207,3.767-18.57,4.39c0,0-2.177,0.15-4.415,0.15H682.721z M682.996,156.691c4.506-0.053,7.897-1.092,7.897-1.092
		c7.495-2.06,11.831-7.38,11.831-7.38c4.95-5.763,6.351-15.368,6.351-15.368c1.438-8.508,1.536-21.765,1.525-25.564v-0.448
		c0.011-3.809-0.089-17.057-1.525-25.566c0,0-1.399-9.605-6.351-15.366c0,0-4.336-5.341-11.831-7.38c0,0-3.393-1.046-7.897-1.1
		h-0.281c-4.506,0.054-7.897,1.1-7.897,1.1c-7.496,2.039-11.845,7.38-11.845,7.38c-4.949,5.761-6.343,15.366-6.343,15.366
		c-1.446,8.509-1.53,21.757-1.53,25.566v0.448c0,3.8,0.084,17.057,1.53,25.564c0,0,1.394,9.605,6.343,15.368
		c0,0,4.349,5.32,11.845,7.38c0,0,3.393,1.039,7.897,1.092H682.996z"/>
	<path fill="#A9A305" d="M747.254,214.302c23.421,7.345,46.422,6.333,46.422,6.333c31.389-0.423,41.404-19.396,41.404-19.396
		c5.679-9.624,3.167-19.142,3.167-19.142c-1.291-5.472-6.075-8.483-6.075-8.483c-3.146-2.188-8.065-2.733-8.065-2.733
		c-5.347-0.645-13.548-0.49-13.548-0.49l-39.18,0.024c-23.647,0-25.046-21.051-25.046-21.051
		c-1.498-13.679,8.123-21.308,8.123-21.308s4.044-3.666,10.868-5.162c0,0,5.509-1.305,14.328-0.768l0.067-0.184
		c-14.009-5.473-23.479-17.762-23.479-31.873c0-19.468,18.274-35.241,40.823-35.241c22.539,0,40.816,15.773,40.816,35.241
		c0,19.467-18.277,35.242-40.816,35.242c-2.986,0-5.896-0.273-8.699-0.803l-12.942-0.025c-7.234-0.025-11.37,1.408-11.37,1.408
		c-2.669,0.844-5.28,2.084-7.238,4.039c0,0-4.519,4.142-3.85,10.105c0,0,0.652,9.967,11.737,10.039c0,0,39.249,0.033,53.574,0.052
		c0,0,6.744,0.138,10.035,0.511c0,0,7.601,0.801,12.562,4.268c0,0,6.721,4.459,8.761,11.92c0,0,5.261,14.007-2.496,28.008
		c0,0-7.64,15.702-25.636,22.828c0,0-6.671,2.918-16.354,4.486c0,0-21.232,4.045-57.725-2.067L747.254,214.302z M797.095,122.657
		c3.129-0.037,5.478-0.714,5.478-0.714c5.207-1.346,8.212-4.838,8.212-4.838c3.437-3.785,4.401-10.109,4.401-10.109
		c1.004-5.568,1.066-14.285,1.066-16.774v-0.293c0-2.505-0.062-11.195-1.066-16.793c0,0-0.966-6.305-4.401-10.087
		c0,0-3.005-3.493-8.212-4.848c0,0-2.349-0.686-5.478-0.72h-0.196c-3.123,0.034-5.479,0.72-5.479,0.72
		c-5.199,1.355-8.209,4.848-8.209,4.848c-3.438,3.783-4.41,10.087-4.41,10.087c-0.995,5.598-1.054,14.288-1.052,16.793v0.293
		c-0.002,2.489,0.057,11.206,1.052,16.774c0,0,0.974,6.324,4.41,10.109c0,0,3.01,3.492,8.209,4.838c0,0,2.354,0.677,5.479,0.714
		H797.095z"/>
	<path fill="#A9A305" d="M291.001,154.186l0.024-68.768c0-6.465-0.614-9.419-0.614-9.419c-1.659-9.037-8.657-14.252-8.657-14.252
		c-4.566-3.438-9.72-5.164-14.628-5.911c0,0-23.205-4.861-44.218,6.341c-24.809-14.582-42.248,3.124-42.248,3.124
		c-7.144,6.703-11.5,15.077-11.5,15.077l-0.375-0.089c0.43-6.862,0.406-12.817,0.406-12.817v-7.484l-38.003,0.008v2.552h16.511
		l-0.002,91.64l-16.509,0.004l0.016,2.643l54.803-0.01L186,154.188l-16.451,0.004l0.006-69.29c0,0,4.323-8.236,10.218-14.63
		c0,0,5.752-6.942,15.149-9.51c0,0,11.617-3.474,22.143,4.377c-4.755,1.778-8.122,6.144-8.122,11.255
		c0,6.703,5.753,12.131,12.854,12.131c7.096,0,12.865-5.428,12.865-12.131c0-4.969-3.189-9.238-7.739-11.106
		c8.548-7.395,20.354-7.489,20.354-7.489c10.565-0.388,16.107,4.07,16.107,4.07c1.623,1.215,3.49,3.433,4.455,5.913
		c0,0,1.443,3.209,1.365,9.613l0.008,24.562c0,0-20.913-0.229-29.315,1.083c0,0-14.371,1.626-22.94,6.721
		c0,0-14.736,7.51-14.314,23.555c0,0,0,13.576,11.096,20.576c0,0,12.751,9.035,34.064,3.904c0,0,17.141-4.009,21.853-18.77
		l0.012,17.785l35.141,0.01v-2.637H291.001L291.001,154.186z M269.278,125.654c0,6.044-0.501,8.508-0.501,8.508
		c-1.025,5.33-3.432,9.184-6.267,11.962l-0.088,0.082c-3.635,3.577-8.715,5.327-8.715,5.327c-7.016,2.488-13.551,0.971-13.551,0.971
		c-9.252-2.111-12.822-10.32-12.822-10.32c-3.979-8.269-1.723-18.111-1.723-18.111c2.433-10.732,11.275-15.086,11.275-15.086
		c4.585-2.691,12.181-3.544,12.181-3.544c5.49-0.829,20.212-0.768,20.212-0.768L269.278,125.654L269.278,125.654z"/>
	<path fill="#A9A305" d="M171.139,61.289"/>
	<path fill="#A9A305" d="M991.911,67.942c1.549,2.001,2.488,4.471,2.543,7.17c0.136,6.708-5.752,12.142-12.862,12.142
		c-7.104,0-12.859-5.433-12.859-12.142c0-5.354,3.683-9.884,8.783-11.491c-6.974-6.673-18.269-6.211-18.269-6.211
		c-4.508,0.053-7.902,1.101-7.902,1.101c-7.686,1.938-11.835,7.378-11.835,7.378c-4.763,5.439-6.365,15.387-6.365,15.387
		c-1.443,8.514-1.521,21.771-1.517,25.574v0.441c-0.005,3.812,0.514,17.428,2.249,25.414c0,0,1.907,10.25,8.029,15.661
		c0,0,6.77,6.979,20.123,6.692c0,0,31.182,0.229,34.967-30.652H1000c-3.18,32.098-34.935,34.552-34.935,34.552
		c-4.842,0.642-10.142,0.325-10.142,0.325c-10.382-0.625-18.674-4.446-18.674-4.446c-25.916-11.478-29.094-38.858-29.12-46.551
		l-0.011-0.142c-0.008-1.248,0.011-2.323,0.011-2.323c0.061-7.958,3.257-35.055,29.12-46.518c0,0,8.203-3.759,18.585-4.394
		c0,0,2.359-0.147,4.42-0.14c0,0,19.605-0.289,30.771,11.03c0,0,1.212,1.234,1.856,2.11L991.911,67.942z"/>
</g>
</svg>
